<svg width="20" height="20" viewBox="0 0 20 20" fill="none" xmlns="http://www.w3.org/2000/svg">
<circle cx="10" cy="10" r="10" fill="#232323"/>
<path d="M8.15166 14H6.01156V8.11853H8.15166V14ZM7.07776 7.21369H7.06492C6.4186 7.21369 6 6.67893 6 6.09124C6 5.48997 6.43145 5 7.09017 5C7.74975 5 8.15509 5.50581 8.16835 6.10707C8.16793 6.69522 7.74975 7.21369 7.07776 7.21369ZM12.0039 9.92822C11.5309 9.92822 11.1478 10.3336 11.1478 10.8331V14H9.0077C9.0077 14 9.03296 8.57095 9.0077 8.11853H11.1478V8.79038C11.1478 8.79038 11.8104 8.13754 12.8334 8.13754C14.1012 8.13754 15 9.10752 15 10.9896V14H12.8599V10.8331C12.8599 10.3336 12.4768 9.92822 12.0039 9.92822Z" fill="#F7F7F7"/>
</svg>
