<svg width="20" height="20" viewBox="0 0 20 20" fill="none" xmlns="http://www.w3.org/2000/svg">
<path d="M10 0C4.48583 0 0 4.48583 0 10C0 15.5142 4.48583 20 10 20C15.5142 20 20 15.5142 20 10C20 4.48583 15.5142 0 10 0ZM14.385 7.82083L14.3917 8.10417C14.3917 11.0025 12.1858 14.345 8.15167 14.345C6.91333 14.345 5.76 13.9808 4.78917 13.3583C5.93417 13.4925 7.09833 13.1858 8.03583 12.4508C7.07667 12.4325 6.26667 11.7983 5.9875 10.9267C6.3175 10.9892 6.65667 10.9775 6.9775 10.8883C5.97417 10.6883 5.21833 9.80083 5.21833 8.73917V8.71C5.51417 8.87417 5.85333 8.9725 6.21167 8.985C5.62333 8.59083 5.23583 7.92083 5.23583 7.16C5.23583 6.75833 5.34417 6.38167 5.5325 6.05667C6.61417 7.38417 8.23 8.25833 10.0533 8.34833C10.0158 8.18917 9.99667 8.02 9.99667 7.84917C9.99667 6.6375 10.9792 5.65583 12.1908 5.65583C12.8217 5.65583 13.3908 5.92167 13.7917 6.34917C14.2917 6.25 15.4167 6.1275 15.4167 6.1275C15.1225 6.56833 14.8133 7.51083 14.385 7.82083Z" fill="#232323"/>
</svg>
