<svg width="20" height="20" viewBox="0 0 20 20" fill="none" xmlns="http://www.w3.org/2000/svg">
<path d="M8.96 7.55667C8.83167 7.48167 8.6725 7.48083 8.5425 7.555C8.41333 7.63 8.33333 7.76667 8.33333 7.91667V12.005C8.33333 12.1533 8.41167 12.29 8.53917 12.365C8.60417 12.4042 8.6775 12.4217 8.75 12.4217C8.82 12.4217 8.89083 12.4042 8.95417 12.3692L12.5233 10.3633C12.6533 10.29 12.7342 10.1533 12.7358 10.0033C12.7367 9.85333 12.6583 9.715 12.5292 9.64L8.96 7.55667ZM10 0C4.48583 0 0 4.48583 0 10C0 15.5142 4.48583 20 10 20C15.5142 20 20 15.5142 20 10C20 4.48583 15.5142 0 10 0ZM15.8333 11.88C15.8333 13.1417 14.8083 14.1667 13.5483 14.1667H6.45083C5.19083 14.1667 4.16667 13.1417 4.16667 11.88V8.11917C4.16667 6.85833 5.19083 5.83333 6.45083 5.83333H13.5483C14.8083 5.83333 15.8333 6.85833 15.8333 8.11917V11.88Z" fill="#232323"/>
</svg>
